# xmcd
#
# Track frame offsets: 
#        150
#        18232
#        34770
#        58475
#        81955
#        100190
#        119017
#        137070
#        155582
#        169637
#        191662
#        207700
#        238765
#        257170
#        276657
#
# Disc length: 3915 seconds
#
# Revision: 18
# Processed by: cddbd v1.5.2PL0 Copyright (c) Steve Scherf et al.
# Submitted via: ExactAudioCopyFreeDBPlugin 1.0
#
DISCID=e70f490f
DTITLE=Stevie Wonder - Song Review - A Greatest Hits Collection - Disc
DTITLE=2
DYEAR=1996
DGENRE=R&B
TTITLE0=Send One Your Love
TTITLE1=Ebony And Ivory
TTITLE2=All I Do
TTITLE3=That Girl
TTITLE4=For Your Love
TTITLE5=I Wish
TTITLE6=You Will Know
TTITLE7=Boogie On Reggae Woman
TTITLE8=Higher Ground
TTITLE9=These Three Words
TTITLE10=Stay Gold
TTITLE11=Love Light In Flight
TTITLE12=Kiss Lonely Good-Bye [Single Version]
TTITLE13=Hold On To Your Dream
TTITLE14=Redemption Song
EXTD=YEAR: 1996
EXTT0=
EXTT1=
EXTT2=
EXTT3=
EXTT4=
EXTT5=
EXTT6=
EXTT7=
EXTT8=
EXTT9=
EXTT10=
EXTT11=
EXTT12=Single Version
EXTT13=
EXTT14=
PLAYORDER=
